HIERARCHY
ROOT Hips
{
	OFFSET 0.00000 0.00000 0.00000
	CHANNELS 6 Xposition Yposition Zposition Zrotation Yrotation Xrotation 
	JOINT LHipJoint
	{
		OFFSET 0 0 0
		CHANNELS 3 Zrotation Yrotation Xrotation
		JOINT LeftUpLeg
		{
			OFFSET 1.66553 -1.82942 0.76350
			CHANNELS 3 Zrotation Yrotation Xrotation
			JOINT LeftLeg
			{
				OFFSET 2.41740 -6.64177 0.00000
				CHANNELS 3 Zrotation Yrotation Xrotation
				JOINT LeftFoot
				{
					OFFSET 2.71614 -7.46254 0.00000
					CHANNELS 3 Zrotation Yrotation Xrotation
					JOINT LeftToeBase
					{
						OFFSET 0.08005 -0.21993 1.82495
						CHANNELS 3 Zrotation Yrotation Xrotation
						End Site
						{
							OFFSET 0.00000 -0.00000 0.93441
						}
					}
				}
			}
		}
	}
	JOINT RHipJoint
	{
		OFFSET 0 0 0
		CHANNELS 3 Zrotation Yrotation Xrotation
		JOINT RightUpLeg
		{
			OFFSET -1.63725 -1.82942 0.76350
			CHANNELS 3 Zrotation Yrotation Xrotation
			JOINT RightLeg
			{
				OFFSET -2.40538 -6.60872 0.00000
				CHANNELS 3 Zrotation Yrotation Xrotation
				JOINT RightFoot
				{
					OFFSET -2.73312 -7.50919 0.00000
					CHANNELS 3 Zrotation Yrotation Xrotation
					JOINT RightToeBase
					{
						OFFSET -0.15567 -0.42769 1.93504
						CHANNELS 3 Zrotation Yrotation Xrotation
						End Site
						{
							OFFSET -0.00000 -0.00000 1.00100
						}
					}
				}
			}
		}
	}
	JOINT LowerBack
	{
		OFFSET 0 0 0
		CHANNELS 3 Zrotation Yrotation Xrotation
		JOINT Spine
		{
			OFFSET 0.00326 2.30118 -0.13017
			CHANNELS 3 Zrotation Yrotation Xrotation
			JOINT Spine1
			{
				OFFSET 0.02887 2.30677 0.00834
				CHANNELS 3 Zrotation Yrotation Xrotation
				JOINT Neck
				{
					OFFSET 0 0 0
					CHANNELS 3 Zrotation Yrotation Xrotation
					JOINT Neck1
					{
						OFFSET 0.12946 1.68326 0.00713
						CHANNELS 3 Zrotation Yrotation Xrotation
						JOINT Head
						{
							OFFSET -0.24364 1.67243 -0.16079
							CHANNELS 3 Zrotation Yrotation Xrotation
							End Site
							{
								OFFSET -0.09229 1.70819 -0.06383
							}
						}
					}
				}
				JOINT LeftShoulder
				{
					OFFSET 0 0 0
					CHANNELS 3 Zrotation Yrotation Xrotation
					JOINT LeftArm
					{
						OFFSET 3.28104 0.69567 -0.00556
						CHANNELS 3 Zrotation Yrotation Xrotation
						JOINT LeftForeArm
						{
							OFFSET 5.70706 -0.00000 -0.00000
							CHANNELS 3 Zrotation Yrotation Xrotation
							JOINT LeftHand
							{
								OFFSET 3.33243 -0.00000 0.00000
								CHANNELS 3 Zrotation Yrotation Xrotation
								JOINT LeftFingerBase
								{
									OFFSET 0 0 0
									CHANNELS 3 Zrotation Yrotation Xrotation
									JOINT LeftHandIndex1
									{
										OFFSET 0.79269 -0.00000 0.00000
										CHANNELS 3 Zrotation Yrotation Xrotation
										End Site
										{
											OFFSET 0.63909 -0.00000 0.00000
										}
									}
								}
								JOINT LThumb
								{
									OFFSET 0 0 0
									CHANNELS 3 Zrotation Yrotation Xrotation
									End Site
									{
										OFFSET 0.64884 -0.00000 0.64884
									}
								}
							}
						}
					}
				}
				JOINT RightShoulder
				{
					OFFSET 0 0 0
					CHANNELS 3 Zrotation Yrotation Xrotation
					JOINT RightArm
					{
						OFFSET -3.40955 0.64424 0.14010
						CHANNELS 3 Zrotation Yrotation Xrotation
						JOINT RightForeArm
						{
							OFFSET -5.88176 -0.00000 -0.00000
							CHANNELS 3 Zrotation Yrotation Xrotation
							JOINT RightHand
							{
								OFFSET -3.28156 -0.00000 0.00000
								CHANNELS 3 Zrotation Yrotation Xrotation
								JOINT RightFingerBase
								{
									OFFSET 0 0 0
									CHANNELS 3 Zrotation Yrotation Xrotation
									JOINT RightHandIndex1
									{
										OFFSET -0.86313 -0.00000 0.00000
										CHANNELS 3 Zrotation Yrotation Xrotation
										End Site
										{
											OFFSET -0.69587 -0.00000 0.00000
										}
									}
								}
								JOINT RThumb
								{
									OFFSET 0 0 0
									CHANNELS 3 Zrotation Yrotation Xrotation
									End Site
									{
										OFFSET -0.70650 -0.00000 0.70650
									}
								}
							}
						}
					}
				}
			}
		}
	}
}
MOTION
Frames: 6
Frame Time: .0083333
12.9228 18.0439 -22.3142 0 0 0 0 0 0 -21 0 0 0 0 0 0 0 0 0 0 0 0 0 0 21 0 0 0 0 0 0 0 0 0 0 0 0 0 0 0 0 0 0 0 0 0 0 -16 0 0 21 0 0 11 0 0 0 -8 0 0 0 0 0 0 0 0 0 0 0 0 0 0 0 0 0 0 0 0 8 0 0 0 0 0 0 0 0 0 0 0 0 0 0 0 0 0
12.9228 18.0439 -22.3142 -0.0760 -20.5154 9.5715 0.0000 0.0000 0.0000 -19.5555 -6.2360 -11.4663 1.2782 7.1649 20.2047 0.6389 0.3370 -15.2294 1.8758 -8.6024 -24.5591 0.0000 0.0000 0.0000 20.8790 -1.9969 -15.3784 -1.6645 -8.1291 23.1069 -0.3763 12.4050 -13.0755 -1.8608 -8.5700 24.4592 2.5045 -2.4334 5.4455 0.0919 -3.0581 -8.0755 -0.8159 -1.7076 -11.8840 16.9365 6.3294 11.3200 -24.1598 7.8874 -16.4486 -11.4476 4.7913 -4.8626 0.0000 0.0000 0.0000 -18.8016 0.0425 -1.1887 17.8173 -27.9226 -4.4633 -0.0000 0.0000 -4.6556 38.8944 18.2108 14.1503 -7.1250 0.0000 -0.0000 11.3013 52.5431 2.1200 0.0000 0.0000 0.0000 23.8091 3.4468 -19.9236 -21.9819 32.9565 -6.5760 0.0000 0.0000 28.4927 -8.4865 15.3351 -2.2597 7.1250 -0.0000 -0.0000 12.8684 -14.7461 9.4136
12.9195 18.0528 -22.3138 -0.1011 -20.6723 9.3608 0.0000 0.0000 0.0000 -19.5741 -6.2545 -11.2507 1.2984 7.2191 20.3661 0.6196 0.7323 -15.1535 1.9968 -8.8593 -25.3562 0.0000 0.0000 0.0000 20.8815 -2.2007 -15.1403 -1.6444 -8.0825 22.9649 -0.2984 12.4751 -12.2939 -1.9981 -8.8620 25.3647 2.4970 -2.7895 5.4240 0.3515 -3.5184 -8.2229 -0.4523 -1.9165 -12.0415 16.4892 6.3983 12.4141 -24.4138 8.0053 -16.4153 -11.5338 4.9476 -5.0359 -0.0000 -0.0000 0.0000 -20.4057 1.9732 0.2195 18.1658 -28.3690 -4.6278 -0.0000 0.0000 -5.8599 38.2188 19.1091 14.4554 -7.1250 0.0000 -0.0000 10.5785 53.4670 2.2222 -0.0000 -0.0000 0.0000 25.0896 4.3868 -18.4254 -21.8374 32.7928 -6.4976 0.0000 0.0000 28.1874 -7.9598 15.9047 -2.1943 7.1250 -0.0000 -0.0000 13.1999 -14.2201 9.8220
12.9153 18.0612 -22.3127 -0.1812 -20.8768 9.1102 0.0000 0.0000 0.0000 -19.5409 -6.2127 -10.9358 1.3089 7.2472 20.4500 0.6136 1.0133 -15.1988 2.0054 -8.8773 -25.4123 0.0000 0.0000 0.0000 20.9298 -2.3758 -14.8605 -1.6354 -8.0614 22.9008 -0.2354 12.7801 -11.7664 -2.1922 -9.2554 26.5976 2.3109 -2.4917 5.5242 0.2358 -3.1411 -7.9372 -0.5407 -1.7199 -11.7549 16.3160 6.2898 12.1516 -23.9070 7.8395 -16.5363 -11.3068 4.8249 -5.0998 -0.0000 -0.0000 0.0000 -21.6561 1.2318 1.3381 18.1419 -28.3385 -4.6164 -0.0000 0.0000 -7.1200 37.2623 20.0480 14.6168 -7.1250 0.0000 -0.0000 9.5059 54.3611 2.2017 -0.0000 -0.0000 0.0000 26.9365 3.7730 -18.5347 -21.7100 32.6477 -6.4287 0.0000 0.0000 28.1607 -7.6117 15.6307 -2.0621 7.1250 -0.0000 -0.0000 13.4397 -14.5102 9.9254
12.9099 18.0683 -22.3074 -0.3721 -21.1766 8.8610 0.0000 0.0000 0.0000 -19.4100 -6.1379 -10.5076 1.3108 7.2521 20.4645 0.6051 1.3215 -15.2307 2.0039 -8.8742 -25.4025 0.0000 0.0000 0.0000 21.0587 -2.1896 -14.4087 -1.6351 -8.0606 22.8983 -0.2075 12.8266 -11.4840 -2.3154 -9.4943 27.3542 2.3098 -2.4496 5.5403 0.3687 -3.0686 -7.7072 -0.4159 -1.6742 -11.4905 15.6655 6.3926 12.1256 -23.5688 7.9019 -16.4758 -11.0586 4.8652 -5.1168 -0.0000 0.0000 0.0000 -23.5523 1.3636 1.6294 17.9833 -28.1358 -4.5414 -0.0000 0.0000 -7.7857 35.7055 20.9176 14.3916 -7.1250 0.0000 -0.0000 7.7148 55.0203 1.9067 -0.0000 0.0000 0.0000 28.5780 4.0171 -17.9619 -21.4804 32.3849 -6.3053 0.0000 0.0000 28.1284 -7.3626 15.1504 -1.9342 7.1250 -0.0000 -0.0000 13.6234 -14.9949 9.9238
12.9099 18.0742 -22.3059 -0.4231 -21.4296 8.5686 0.0000 0.0000 0.0000 -19.4289 -6.0439 -10.0851 1.2992 7.2213 20.3727 0.5722 1.6767 -14.9943 2.0909 -9.0529 -25.9608 0.0000 0.0000 0.0000 21.0463 -2.0377 -14.0433 -1.6457 -8.0854 22.9738 -0.1907 12.7415 -11.2500 -2.3843 -9.6245 27.7690 2.2712 -2.2974 5.5663 0.3719 -2.8637 -7.3991 -0.4326 -1.5671 -11.1463 15.5059 6.4361 11.3858 -23.5224 7.9120 -15.9884 -10.9278 4.8371 -4.8468 0.0000 -0.0000 0.0000 -25.4987 1.0928 1.8827 17.9290 -28.0662 -4.5158 -0.0000 0.0000 -8.2075 34.2845 22.0870 14.3782 -7.1250 0.0000 -0.0000 5.9925 56.0366 1.6265 0.0000 -0.0000 0.0000 30.2375 3.9059 -17.5993 -21.2263 32.0915 -6.1697 0.0000 0.0000 27.8709 -6.8718 15.5416 -1.8494 7.1250 -0.0000 -0.0000 13.9333 -14.6410 10.2727
